<?xml version="1.0" standalone="no"?>
<!DOCTYPE svg PUBLIC "-//W3C//DTD SVG 20010904//EN"
 "http://www.w3.org/TR/2001/REC-SVG-20010904/DTD/svg10.dtd">
<svg version="1.0" xmlns="http://www.w3.org/2000/svg"
 width="70.000000pt" height="70.000000pt" viewBox="0 0 70.000000 70.000000"
 preserveAspectRatio="xMidYMid meet">
<metadata>
Created by potrace 1.11, written by Peter Selinger 2001-2013
</metadata>
<g transform="translate(0.000000,70.000000) scale(0.100000,-0.100000)"
fill="#000000" stroke="none">
<path d="M0 350 l0 -350 350 0 350 0 0 350 0 350 -350 0 -350 0 0 -350z m242
64 l3 -176 28 -24 c44 -38 143 -29 164 15 4 9 10 93 13 186 l5 170 25 0 25 0
0 -177 c0 -163 -2 -179 -21 -204 -32 -44 -68 -66 -117 -71 -94 -11 -160 36
-177 126 -11 60 -14 314 -3 324 3 4 16 7 29 7 22 0 22 -1 26 -176z"/>
</g>
</svg>
